<svg width="13" height="14" viewBox="0 0 13 14" fill="none" xmlns="http://www.w3.org/2000/svg">
<path fill-rule="evenodd" clip-rule="evenodd" d="M6.26471 0.735352C6.67892 0.735352 7.01471 1.07114 7.01471 1.48535V6.25006H11.7794C12.1936 6.25006 12.5294 6.58584 12.5294 7.00006C12.5294 7.41427 12.1936 7.75006 11.7794 7.75006H7.01471V12.5148C7.01471 12.929 6.67892 13.2648 6.26471 13.2648C5.85049 13.2648 5.51471 12.929 5.51471 12.5148V7.75006H0.75C0.335786 7.75006 0 7.41427 0 7.00006C0 6.58584 0.335786 6.25006 0.75 6.25006H5.51471V1.48535C5.51471 1.07114 5.85049 0.735352 6.26471 0.735352Z" fill="black" style="fill:black;fill-opacity:1;"/>
</svg>
