<?xml version="1.0" encoding="UTF-8"?>
<svg id="Layer_2" data-name="Layer 2" xmlns="http://www.w3.org/2000/svg" viewBox="0 0 19.5 19.5">
  <g id="Layer_1-2" data-name="Layer 1">
    <path d="M9.75,19.5C4.374,19.5,0,15.126,0,9.75S4.374,0,9.75,0s9.75,4.374,9.75,9.75-4.374,9.75-9.75,9.75ZM9.75,1.5C5.2012,1.5,1.5,5.2012,1.5,9.75s3.7012,8.25,8.25,8.25,8.25-3.7012,8.25-8.25S14.2988,1.5,9.75,1.5Zm.75,10.0869V4.7368c0-.4141-.3359-.75-.75-.75s-.75,.3359-.75,.75v6.8501c0,.4141,.3359,.75,.75,.75s.75-.3359,.75-.75Zm-.7468,1.8823c-.57,0-1.02,.46-1.02,1.02,0,.57,.45,1.02,1.02,1.02,.56,0,1.02-.45,1.02-1.02,0-.56-.46-1.02-1.02-1.02Z"/>
  </g>
</svg>