<?xml version="1.0" encoding="UTF-8"?>
<svg id="Layer_2" data-name="Layer 2" xmlns="http://www.w3.org/2000/svg" viewBox="0 0 19.4999 19.5005">
  <g id="Layer_1-2" data-name="Layer 1">
    <path d="M17.6085,19.5005H1.8917c-.2598,0-.5117-.0488-.748-.1455-.2363-.0947-.4512-.2373-.6338-.4199-.1865-.1904-.3232-.4072-.4102-.6484-.0879-.2451-.1182-.5107-.0889-.7695L1.2931,6.4395c.0518-.4482,.2783-.8589,.6396-1.1558,.3467-.2827,.7861-.4375,1.2402-.4375h2.0361c.0674-1.0298,.4766-2.8438,1.3477-3.6367,.8564-.7798,1.9902-1.2095,3.1934-1.2095,1.2021,0,2.3369,.4297,3.1943,1.2095,.8711,.793,1.2803,2.6069,1.3477,3.6367h2.0361c.9678,0,1.7754,.6855,1.8799,1.5942l1.2803,11.0767c.0566,.4912-.0967,.9697-.4326,1.3477-.3604,.4043-.8877,.6357-1.4473,.6357ZM3.1729,6.3462c-.1084,0-.2139,.0356-.2891,.0977-.0576,.0469-.0938,.1069-.1006,.1675l-1.2822,11.0776c.0234,.126,.0459,.1602,.0771,.1924,.0332,.0332,.0781,.0635,.1279,.083,.0596,.0244,.1221,.0361,.1855,.0361h15.7168c.1318,0,.251-.0488,.3271-.1338,.0488-.0547,.0703-.1143,.0625-.1768l-1.2803-11.0786c-.0166-.146-.1914-.2651-.3896-.2651H3.1729Zm3.5381-1.5h6.0791c-.0703-.8984-.4424-2.1514-.8555-2.5273-1.1445-1.041-3.2256-1.0405-4.3682-.0005-.4131,.376-.7852,1.6294-.8555,2.5278Z"/>
  </g>
</svg>