<svg width="15" height="16" viewBox="0 0 15 16" fill="none" xmlns="http://www.w3.org/2000/svg">
<g clip-path="url(#clip0_706_1051)">
<path d="M7.5 0.5C3.36462 0.5 0 3.86462 0 8C0 12.1354 3.36462 15.5 7.5 15.5C11.6354 15.5 15 12.1354 15 8C15 3.86462 11.6354 0.5 7.5 0.5ZM7.5 14.3462C4.00092 14.3462 1.15385 11.4991 1.15385 8C1.15385 4.50092 4.00092 1.65385 7.5 1.65385C10.9991 1.65385 13.8462 4.50092 13.8462 8C13.8462 11.4991 10.9991 14.3462 7.5 14.3462ZM10.4237 5.90262L6.69769 11.4908C6.67369 11.5283 6.64508 11.564 6.61277 11.5952C6.56469 11.6425 6.50838 11.6815 6.44446 11.7112C6.36708 11.7469 6.28369 11.7653 6.19654 11.7653L6.17623 11.7657C6.10039 11.7657 6.02446 11.7473 5.94408 11.7094C5.881 11.6801 5.82238 11.6392 5.77131 11.5877C5.73977 11.555 5.712 11.5201 5.68869 11.4825L3.83023 8.61223C3.65223 8.33692 3.73108 7.96731 4.00677 7.78854C4.10369 7.72585 4.21562 7.69277 4.32977 7.69277C4.53262 7.69277 4.71962 7.79415 4.83085 7.96431L6.20254 10.0845L9.43269 5.24115C9.54315 5.07477 9.72869 4.97562 9.92846 4.97562C10.0464 4.97562 10.1606 5.01054 10.259 5.07631C10.3912 5.16454 10.4814 5.29908 10.5122 5.45492C10.5437 5.61115 10.5123 5.77008 10.4237 5.90262Z" fill="white" style="fill:white;fill-opacity:1;"/>
</g>
<defs>
<clipPath id="clip0_706_1051">
<rect width="15" height="15" fill="white" style="fill:white;fill-opacity:1;" transform="translate(0 0.5)"/>
</clipPath>
</defs>
</svg>
