<?xml version="1.0" encoding="UTF-8"?>
<svg id="Layer_2" data-name="Layer 2" xmlns="http://www.w3.org/2000/svg" viewBox="0 0 19.5 19.5">
  <g id="Layer_1-2" data-name="Layer 1">
    <path d="M9.75,19.5C4.374,19.5,0,15.126,0,9.75S4.374,0,9.75,0s9.75,4.374,9.75,9.75-4.374,9.75-9.75,9.75ZM9.75,1.5C5.2012,1.5,1.5,5.2012,1.5,9.75s3.7012,8.25,8.25,8.25,8.25-3.7012,8.25-8.25S14.2988,1.5,9.75,1.5Zm1.4912,14.5181c-.4131,0-.749-.3345-.75-.748l-.0137-5.6138c-.001-.2104,.0869-.4111,.2422-.5537l3.6758-3.3862c.3037-.2798,.7773-.2607,1.0596,.0435,.2803,.3047,.2607,.7793-.0439,1.0601l-3.4326,3.1626,.0127,5.2837c.001,.4146-.334,.751-.748,.752h-.002Zm-2.9824,0h-.002c-.4141-.001-.749-.3374-.748-.752l.0127-5.2837-3.4326-3.1626c-.3047-.2808-.3242-.7554-.0439-1.0601,.2822-.3042,.7568-.3232,1.0596-.0435l3.6758,3.3862c.1553,.1426,.2432,.3433,.2422,.5537l-.0137,5.6138c-.001,.4136-.3369,.748-.75,.748Z"/>
  </g>
</svg>