<?xml version="1.0" encoding="UTF-8"?>
<svg id="Layer_2" data-name="Layer 2" xmlns="http://www.w3.org/2000/svg" viewBox="0 0 19.5 19.5">
  <g id="Layer_1-2" data-name="Layer 1">
    <path d="M18.2401,4.97c-.84-1.51-2.08-2.77-3.57-3.64-1.49-.87-3.19-1.33-4.92-1.33s-3.43,.46-4.92,1.33c-1.49,.88-2.73,2.13-3.58,3.64-.8199,1.45-1.25,3.1-1.25,4.78,0,.82,.1,1.64,.3101,2.44,.54,2.09,1.77,3.96,3.47,5.27,1.7,1.32,3.82,2.04,5.97,2.04s4.27-.72,5.97-2.04c1.7-1.31,2.93-3.18,3.47-5.27,.21-.79,.31-1.61,.31-2.44,0-1.67-.43-3.33-1.2599-4.78ZM9.75,1.5c1.38,0,2.4,2.2,2.73,5.67-.88,.22-1.79,.33-2.71,.33-.91,.03-1.86-.11-2.76-.33,.34-3.48,1.35-5.67,2.74-5.67ZM1.5,9.75c0-1.12,.23-2.23,.66-3.25,1.01,.74,2.11,1.33,3.27,1.75-.02,.48-.03,.98-.03,1.5,0,1.18,.06,2.26,.17,3.24-1.35-.34-2.66-.83-3.89-1.48-.12-.58-.1801-1.17-.1801-1.76Zm3.2,6.53c-.96-.75-1.75-1.7-2.3-2.77,1.1,.46,2.25,.83,3.41,1.08,.24,1.14,.56,2.1,.97,2.86-.74-.29-1.45-.6801-2.08-1.17Zm.85-9.59c-.95-.38-1.85-.89-2.66-1.52,.69-1.04,1.61-1.91,2.69-2.54,.39-.23,.79-.42,1.2-.58-.61,1.12-1.02,2.69-1.23,4.64Zm4.2,11.31c-1.0099,0-1.83-1.16-2.3199-3.14,.77,.09,1.54,.14,2.3199,.14,.77,.03,1.55-.04,2.32-.14-.5,1.98-1.31,3.14-2.32,3.14Zm2.6201-4.69c-.86,.13-1.72,.19-2.59,.19-.86,.01-1.78-.06-2.65-.2-.15-1.05-.23-2.24-.23-3.55,0-.36,.01-.72,.02-1.07,.92,.21,1.87,.32,2.83,.32,.95-.03,1.91-.1,2.83-.31,.01,.34,.02,.7,.02,1.06,0,1.31-.08,2.51-.23,3.56Zm1.54-10.68c1.08,.63,2.01,1.5,2.7,2.54-.82,.63-1.71,1.14-2.66,1.52-.21-1.95-.63-3.52-1.24-4.64,.42,.16,.82,.35,1.2,.58Zm.89,13.65c-.64,.49-1.34,.88-2.08,1.17,.41-.76,.73-1.72,.96-2.86,1.17-.25,2.31-.61,3.41-1.08-.55,1.0699-1.33,2.02-2.29,2.77Zm3.01-4.77c-1.23,.65-2.53,1.15-3.88,1.48,.11-.98,.17-2.06,.17-3.24,0-.52-.01-1.02-.03-1.5,1.16-.42,2.26-1,3.26-1.75,.44,1.03,.67,2.13,.67,3.25,0,.59-.06,1.18-.1899,1.76Z"/>
  </g>
</svg>