<svg width="19" height="19" viewBox="0 0 19 19" fill="none" xmlns="http://www.w3.org/2000/svg">
<path d="M5.05926 10.2308H18.2692C18.6727 10.2308 19 9.90348 19 9.5C19 9.09652 18.6727 8.76923 18.2692 8.76923H5.05926C4.65578 8.76923 4.32849 9.09652 4.32849 9.5C4.32849 9.90348 4.65578 10.2308 5.05926 10.2308ZM8.76923 18.2692C8.76923 17.8657 9.09652 17.5385 9.5 17.5385H18.2692C18.6727 17.5385 19 17.8657 19 18.2692C19 18.6727 18.6727 19 18.2692 19H9.5C9.09652 19 8.76923 18.6727 8.76923 18.2692ZM0 0.730769C0 0.327287 0.327288 0 0.73077 0H18.2692C18.6727 0 19 0.327287 19 0.730769C19 1.13425 18.6727 1.46154 18.2692 1.46154H0.73077C0.327288 1.46154 0 1.13425 0 0.730769Z" fill="black" style="fill:black;fill-opacity:1;"/>
</svg>
