<svg width="30" height="30" viewBox="0 0 30 30" fill="none" xmlns="http://www.w3.org/2000/svg">
<circle cx="15" cy="15" r="15" fill="white" style="fill:white;fill-opacity:1;"/>
<circle cx="15" cy="15" r="14.5" stroke="black" stroke-opacity="0.45" style="stroke:black;stroke-opacity:0.45;"/>
<path fill-rule="evenodd" clip-rule="evenodd" d="M13.6454 20.5021C13.3496 20.7815 12.8871 20.7815 12.5912 20.5022C12.2704 20.1992 12.2704 19.6889 12.5911 19.3859L17.379 14.8634C17.5879 14.6661 17.5879 14.3337 17.379 14.1364L12.5911 9.6139C12.2704 9.3109 12.2704 8.8006 12.5912 8.4976C12.8871 8.2183 13.3496 8.2183 13.6454 8.4977L19.2305 13.7729C19.6483 14.1675 19.6483 14.8323 19.2305 15.2269L13.6454 20.5021Z" fill="black" fill-opacity="0.55" style="fill:black;fill-opacity:0.55;"/>
<path d="M12.4196 20.6839L12.4196 20.6839C12.8118 21.0543 13.4249 21.0542 13.817 20.6838C13.817 20.6838 13.817 20.6838 13.817 20.6838L19.4022 15.4086C19.9244 14.9154 19.9244 14.0844 19.4022 13.5912L13.817 8.31595L13.6454 8.4977L13.817 8.31595C13.4249 7.94555 12.8118 7.94556 12.4196 8.3158L12.4195 8.31585C11.9943 8.71749 11.9942 9.39396 12.4194 9.79563L12.4195 9.79564L17.2074 14.3182L17.2074 14.3182C17.3118 14.4168 17.3118 14.583 17.2074 14.6816L17.2074 14.6816L12.4195 19.2042C11.9943 19.6058 11.9943 20.2824 12.4196 20.6839Z" stroke="black" stroke-opacity="0.55" style="stroke:black;stroke-opacity:0.55;" stroke-width="0.5"/>
</svg>
