<svg width="14" height="14" viewBox="0 0 14 14" fill="none" xmlns="http://www.w3.org/2000/svg">
<path d="M9.17969 0H4.81974C4.24175 0.000554723 3.68759 0.23151 3.27888 0.642176C2.87018 1.05284 2.64033 1.60967 2.63977 2.19043V13.2265C2.62932 13.4287 2.69344 13.6277 2.81986 13.7855C2.88264 13.8565 2.96044 13.9126 3.04756 13.9496C3.13469 13.9866 3.22894 14.0036 3.32343 13.9994C3.47304 13.9983 3.61842 13.9494 3.73857 13.8598C3.91899 13.7213 4.08898 13.5697 4.24717 13.406L6.98929 10.6577L9.75359 13.4069C9.91286 13.5659 10.0808 13.7158 10.2566 13.8561C10.3771 13.9488 10.5246 13.999 10.6764 13.999C10.7708 14.0033 10.865 13.9863 10.9521 13.9493C11.0391 13.9123 11.1168 13.8562 11.1795 13.7851C11.3061 13.6275 11.3702 13.4284 11.3596 13.2261V2.19043C11.359 1.60968 11.1292 1.05287 10.7205 0.64221C10.3118 0.231547 9.75767 0.000579933 9.17969 0ZM3.77715 2.19043C3.77765 1.91275 3.88766 1.64658 4.08307 1.45023C4.27849 1.25387 4.54339 1.14334 4.81974 1.14284H9.17969C9.45605 1.14334 9.72094 1.25387 9.91636 1.45023C10.1118 1.64658 10.2218 1.91275 10.2223 2.19043L10.2218 12.2646L7.7883 9.84391C7.57785 9.63576 7.29434 9.51918 6.99905 9.51935C6.70375 9.51953 6.42038 9.63646 6.21019 9.84486L3.77715 12.2658V2.19043Z" fill="black" fill-opacity="0.45" style="fill:black;fill-opacity:0.45;"/>
</svg>
