<?xml version="1.0" encoding="UTF-8"?>
<svg id="Layer_2" data-name="Layer 2" xmlns="http://www.w3.org/2000/svg" viewBox="0 0 19.2803 19.2808">
  <g id="Layer_1-2" data-name="Layer 1">
    <path d="M18.2197,19.2808l-4.6904-4.6904c-1.48,1.2363-3.3281,1.9102-5.2793,1.9102-2.2031,0-4.2749-.8584-5.8335-2.417-1.5581-1.5576-2.4165-3.6294-2.4165-5.8335S.8584,3.9746,2.4165,2.4165,6.0464,0,8.25,0s4.2749,.8579,5.8335,2.4165,2.4165,3.6304,2.4165,5.8335c0,1.9517-.6733,3.8003-1.9097,5.2798l4.6899,4.6904-1.0605,1.0605ZM8.25,1.5c-1.8027,0-3.498,.7021-4.7729,1.9771s-1.9771,2.9702-1.9771,4.7729,.7021,3.4985,1.9771,4.7729c1.2754,1.2754,2.9702,1.9775,4.7729,1.9775s3.4971-.7021,4.7729-1.9775c1.2749-1.2754,1.9771-2.9702,1.9771-4.7729s-.7021-3.4976-1.9771-4.7729c-1.2754-1.2749-2.9707-1.9771-4.7729-1.9771Z"/>
  </g>
</svg>