<svg width="17" height="15" viewBox="0 0 17 15" fill="none" xmlns="http://www.w3.org/2000/svg">
<path fill-rule="evenodd" clip-rule="evenodd" d="M9.1824 13.9504C8.85482 13.6132 8.86263 13.0743 9.19984 12.7467L13.7246 8.35116L1.35151 8.35116C0.881386 8.35116 0.500273 7.97004 0.500273 7.49992C0.500273 7.02979 0.881386 6.64868 1.35151 6.64868L13.7246 6.64868L9.19984 2.25315C8.86263 1.92558 8.85482 1.38666 9.1824 1.04945C9.50998 0.712234 10.0489 0.704423 10.3861 1.032L16.4157 6.88934C16.5807 7.04963 16.6738 7.26988 16.6738 7.49992C16.6738 7.72996 16.5807 7.9502 16.4157 8.11049L10.3861 13.9678C10.0489 14.2954 9.50997 14.2876 9.1824 13.9504Z" fill="black" style="fill:black;fill-opacity:1;"/>
</svg>
