<?xml version="1.0" standalone="no"?>
<!DOCTYPE svg PUBLIC "-//W3C//DTD SVG 20010904//EN"
 "http://www.w3.org/TR/2001/REC-SVG-20010904/DTD/svg10.dtd">
<svg version="1.0" xmlns="http://www.w3.org/2000/svg"
 width="816.000000pt" height="816.000000pt" viewBox="0 0 816.000000 816.000000"
 preserveAspectRatio="xMidYMid meet">
<metadata>
Created by potrace 1.14, written by Peter Selinger 2001-2017
</metadata>
<g transform="translate(0.000000,816.000000) scale(0.100000,-0.100000)"
fill="#000000" stroke="none">
<path d="M3875 7193 c-242 -28 -420 -67 -595 -128 -117 -41 -337 -144 -433
-201 -136 -82 -2018 -1271 -2102 -1328 -118 -80 -298 -256 -396 -385 -127
-170 -234 -394 -289 -606 -143 -553 -27 -1129 315 -1570 86 -110 262 -278 370
-351 87 -59 1978 -1253 2100 -1326 516 -308 1167 -413 1754 -282 64 14 177 46
251 71 265 87 357 140 1441 823 552 348 1051 665 1109 704 172 117 371 322
483 499 92 145 173 333 217 502 143 553 27 1129 -315 1570 -91 116 -264 279
-385 361 -58 39 -557 356 -1109 704 -1084 683 -1178 737 -1441 824 -266 88
-512 127 -785 125 -88 -1 -173 -4 -190 -6z m485 -894 c285 -32 568 -120 835
-258 129 -66 1612 -996 1712 -1073 76 -58 191 -183 247 -267 255 -383 240
-921 -34 -1290 -124 -167 -160 -193 -1012 -731 -868 -548 -999 -622 -1259
-708 -273 -90 -486 -124 -769 -124 -286 1 -493 34 -768 124 -257 84 -392 160
-1242 697 -421 265 -788 501 -817 523 -78 59 -198 189 -251 271 -133 206 -200
483 -174 722 21 191 75 353 167 501 57 91 196 240 280 299 163 115 1577 998
1700 1061 431 221 906 308 1385 253z"/>
<path d="M3135 5185 c-260 -48 -460 -247 -510 -509 -29 -148 -11 -279 56 -416
34 -69 58 -101 128 -170 115 -114 221 -165 384 -185 32 -4 47 -11 47 -21 0
-29 -83 -262 -132 -369 -95 -208 -98 -216 -98 -285 0 -242 284 -361 455 -192
89 88 257 513 325 822 51 231 88 603 75 745 -29 299 -237 529 -525 581 -90 16
-114 16 -205 -1z"/>
<path d="M4770 5184 c-218 -57 -399 -241 -457 -464 -20 -79 -22 -233 -4 -310
18 -76 82 -206 129 -262 61 -73 140 -136 217 -173 66 -32 194 -65 249 -65 l24
0 -25 -82 c-40 -132 -91 -263 -155 -401 -60 -127 -60 -129 -56 -202 6 -84 33
-141 94 -195 81 -70 189 -84 287 -36 69 34 96 65 153 179 170 338 282 751 314
1156 14 185 13 269 -6 359 -48 237 -234 437 -461 496 -76 20 -229 20 -303 0z"/>
</g>
</svg>
